<svg xmlns="http://www.w3.org/2000/svg" width="280" height="48" viewBox="0 0 280 48"><g fill="#001e62" stroke="#001e62" stroke-width="1"><rect width="280" height="48" rx="24" stroke="none"/><rect x="0.5" y="0.5" width="279" height="47" rx="23.5" fill="none"/></g><path d="M36.947,46.279,29.826,53.4a.879.879,0,0,1-1.244,0l-.831-.831a.879.879,0,0,1,0-1.242l5.643-5.67-5.643-5.67a.879.879,0,0,1,0-1.242l.831-.831a.879.879,0,0,1,1.244,0l7.121,7.121A.879.879,0,0,1,36.947,46.279Z" transform="translate(218.505 -21.657)" fill="#fffeff"/><path d="M5.7-5.84H2.928L3.488-6a7.767,7.767,0,0,0-.736-2.112h3.12a18.211,18.211,0,0,1-.784,2.1Zm-.848-4.88H7.184v-1.024H4.848V-13.36H3.728v1.616H1.3v1.024H3.728v1.584H.72v1.024h1.9L1.84-7.9A8.842,8.842,0,0,1,2.512-5.84H.944V-4.8H3.728v1.728H1.1v1.008H3.728V1.184h1.12V-2.064H7.392V-3.072H4.848V-4.8H7.6V-5.84H6.016c.272-.56.592-1.328.88-2.064l-.768-.208H7.792V-9.136H4.848ZM9.392-6.272h.144A15.827,15.827,0,0,0,11.6-1.744,8.773,8.773,0,0,1,9.392.4Zm4.208,0a13.2,13.2,0,0,1-1.376,3.536,14.107,14.107,0,0,1-1.68-3.536Zm.544-1.04-.208.048H9.392v-4.3h4.016V-9.6c0,.192-.064.24-.32.256-.24.016-1.072.016-2.064-.016a3.677,3.677,0,0,1,.368,1.04,9.453,9.453,0,0,0,2.5-.176c.512-.176.624-.5.624-1.088v-3.072H8.3V1.232H9.392V.464a4.289,4.289,0,0,1,.752.784A9.368,9.368,0,0,0,12.288-.816a8.847,8.847,0,0,0,2.368,2.032,5.279,5.279,0,0,1,.816-.96,8.012,8.012,0,0,1-2.528-2.032A14.73,14.73,0,0,0,14.88-7.04ZM27.952-3.7V-.64h-7.76V-3.7ZM19.008,1.376h1.184V.48h7.76v.864h1.2V-4.8H19.008Zm5.968-8.864V-10H29.84v-1.088H24.976v-2.3H23.744v2.3H20.4a19.245,19.245,0,0,0,.784-1.872L20-13.232A12.367,12.367,0,0,1,17.232-8.5c.3.16.832.48,1.072.64A12.941,12.941,0,0,0,19.824-10h3.92v2.512h-6.7v1.12H31.024v-1.12Zm16.5,5.328c-.016-.768-.032-2.112-.048-3.024,1.2-.56,2.336-1.024,3.232-1.376.416-.16.992-.384,1.392-.5l-.512-1.2c-.448.224-.832.416-1.312.624-.832.384-1.792.768-2.88,1.28a1.992,1.992,0,0,0-2.1-1.44,4.494,4.494,0,0,0-2.192.592A11.37,11.37,0,0,0,38.48-9.632a48.95,48.95,0,0,0,5.248-.448l.016-1.184a42.518,42.518,0,0,1-4.848.48c.224-.72.368-1.376.48-1.824l-1.312-.112a8.586,8.586,0,0,1-.4,1.968c-.368.016-.7.016-1.04.016-.72,0-1.824-.064-2.672-.16v1.2c.864.064,1.936.1,2.608.1h.656a16.765,16.765,0,0,1-3.648,4.832l1.088.816c.544-.64.992-1.232,1.44-1.664a4.217,4.217,0,0,1,2.736-1.168,1.34,1.34,0,0,1,1.424.976c-1.84.96-3.728,2.144-3.728,4.016,0,1.936,1.824,2.416,4.1,2.416A40.8,40.8,0,0,0,44.96.368l.032-1.3a27.9,27.9,0,0,1-4.32.384c-1.632,0-2.864-.176-2.864-1.424,0-1.04,1.024-1.856,2.5-2.656,0,.832-.016,1.856-.064,2.464ZM52.7-.912c-.624,0-1.712-.624-1.712-1.344s.944-1.616,2.224-2.224c.016,1.152.048,2.224.048,2.8C53.264-1.184,53.072-.912,52.7-.912Zm1.664-5.712c0-.64.016-1.392.032-2.144a32.183,32.183,0,0,0,3.3-.544l-.016-1.264a20.843,20.843,0,0,1-3.248.64c.016-.7.032-1.328.048-1.712.016-.368.048-.8.08-1.088H53.168a6.214,6.214,0,0,1,.1,1.12c0,.288-.016.976-.032,1.808-.432.032-.848.048-1.216.048A14.388,14.388,0,0,1,50-9.888l.032,1.216a19.82,19.82,0,0,0,2.016.08c.336,0,.736-.016,1.168-.048-.016.7-.016,1.44-.016,2.08v.9c-1.824.784-3.472,2.16-3.472,3.456,0,1.424,2.064,2.624,3.312,2.624.848,0,1.408-.464,1.408-1.936,0-.688-.032-2.08-.064-3.424a10.207,10.207,0,0,1,3.44-.624c1.5,0,2.72.72,2.72,2.064,0,1.472-1.264,2.224-2.656,2.48a9.111,9.111,0,0,1-1.856.112L56.48.352A10.154,10.154,0,0,0,58.432.144C60.608-.384,61.808-1.6,61.808-3.52c0-1.888-1.664-3.152-3.968-3.152a11.749,11.749,0,0,0-3.472.576Zm4.56-3.392A20.484,20.484,0,0,1,62.48-7.648l.64-1.024a26.678,26.678,0,0,0-3.616-2.32Zm8.864.112c1.264.112,2.608.176,4.192.176,1.456,0,3.2-.112,4.272-.192v-1.312c-1.136.112-2.752.224-4.272.224a35.365,35.365,0,0,1-4.192-.208Zm-.656,4.96a10.046,10.046,0,0,0-.32,2.224C66.816-.736,68.688.32,71.9.32a23.3,23.3,0,0,0,5.408-.544L77.3-1.6a20.592,20.592,0,0,1-5.424.608c-2.528,0-3.744-.832-3.744-2.016a6.246,6.246,0,0,1,.32-1.808Zm27.712-3.44A23.963,23.963,0,0,0,91.136-10.5l-.624.992a19.031,19.031,0,0,1,3.616,2.176Zm-5.76-2.4a16.2,16.2,0,0,1-2.464.576c.256-.912.464-1.872.624-2.448l-1.424-.128a12.987,12.987,0,0,1-.5,2.736c-.608.048-1.2.08-1.76.08a14.925,14.925,0,0,1-1.952-.112l.1,1.2c.592.032,1.248.048,1.84.048q.7,0,1.392-.048a22.728,22.728,0,0,1-3.392,5.92l1.248.64a28.47,28.47,0,0,0,3.456-6.7A18.85,18.85,0,0,0,89.12-9.6Zm.832,8.848c0,.784-.432,1.5-1.728,1.5-1.232,0-1.824-.5-1.824-1.232,0-.72.768-1.248,1.936-1.248a5.77,5.77,0,0,1,1.6.224C89.92-2.4,89.92-2.144,89.92-1.936ZM89.7-7.76c.032,1.1.112,2.656.16,3.952a7.5,7.5,0,0,0-1.5-.144c-1.792,0-3.168.944-3.168,2.4,0,1.568,1.424,2.288,3.168,2.288,1.952,0,2.784-1.04,2.784-2.3,0-.176,0-.4-.016-.64A11.023,11.023,0,0,1,93.664-.4l.688-1.088a10.694,10.694,0,0,0-3.28-1.984c-.032-.96-.1-2-.112-2.576a15.412,15.412,0,0,1,.016-1.712Zm17.776,2.4c0,2.848-2.72,4.352-6.56,4.832l.752,1.216c4.112-.608,7.168-2.56,7.168-6,0-2.256-1.68-3.52-3.936-3.52a21.007,21.007,0,0,0-4.736.768c-.464.1-1.008.192-1.44.24l.4,1.472c.384-.144.848-.336,1.328-.464a14.757,14.757,0,0,1,4.32-.816C106.4-7.632,107.472-6.688,107.472-5.36Zm-6.64-7.136-.208,1.216c1.792.32,4.992.64,6.752.752l.192-1.232A42.451,42.451,0,0,1,100.832-12.5Z" transform="translate(84 31)" fill="#fffeff"/></svg>