<svg xmlns="http://www.w3.org/2000/svg" xmlns:xlink="http://www.w3.org/1999/xlink" width="384" height="216" viewBox="0 0 384 216"><defs><clipPath id="a"><rect width="384" height="216" transform="translate(312 1273)" fill="none"/></clipPath></defs><g transform="translate(-312 -1273)" clip-path="url(#a)"><g transform="translate(376 1356)"><path d="M80.565,28.359c0-11.648,5.894-17.35,13.131-17.35s13.131,5.7,13.131,17.35-5.893,17.35-13.131,17.35S80.565,40.006,80.565,28.359Zm22.525,0c0-10.113-4.411-14-9.394-14s-9.394,3.883-9.394,14,4.41,14,9.394,14S103.09,38.472,103.09,28.359Z" transform="translate(-24.981 -3.413)" fill="#001e63"/><path d="M125.575,49.7V26.31h3.355v4.122h.191a6.931,6.931,0,0,1,7-4.7c4.935,0,7.62,3.5,7.62,9.057V49.7h-3.546V35.082c0-4.074-1.966-6.567-5.415-6.567s-5.654,2.587-5.654,6.661V49.7Z" transform="translate(-38.937 -7.98)" fill="#001e63"/><path d="M178.5,38.822h-16.1c.24,4.935,2.636,8.29,6.47,8.29,3.258,0,5.129-1.726,5.7-4.793l3.546.288c-.816,4.935-4.074,7.668-9.252,7.668-5.7,0-10.016-4.41-10.016-12.269s4.6-12.269,10.065-12.269c5.991,0,9.585,4.216,9.585,11.311v1.774Zm-15.958-3.07H174.9c-.191-4.41-2.493-6.852-5.991-6.852C165.316,28.9,163.065,31.151,162.538,35.752Z" transform="translate(-49.252 -7.98)" fill="#001e63"/><path d="M214.375,45.392l-2.542-7.717H197.359l-2.539,7.717h-3.883l11.311-33.548h4.695l11.311,33.548ZM198.463,34.32h12.27l-6.04-18.309H204.5Z" transform="translate(-59.203 -3.672)" fill="#001e63"/><path d="M233.939,35.217l3.5-.382c.382,5.223,2.733,7.668,7.092,7.668,4.025,0,6.758-2.493,6.758-6.327,0-3.5-2.108-5.129-5.608-6.182l-4.313-1.341c-3.834-1.15-6.9-4.122-6.9-8.818,0-5.129,4.411-8.818,9.971-8.818,5.129,0,9.585,2.445,10.112,9.345l-3.5.337c-.382-4.7-2.972-6.47-6.612-6.47-3.692,0-6.279,2.157-6.279,5.56,0,3.018,2.157,5.032,5.608,6.039l3.692,1.15c4.41,1.341,7.571,3.786,7.571,8.818,0,6.23-4.89,9.922-10.495,9.922C238.635,45.712,234.178,42.548,233.939,35.217Z" transform="translate(-72.537 -3.416)" fill="#001e63"/><path d="M272.28,45.392V11.844h3.737V45.392Z" transform="translate(-84.425 -3.672)" fill="#001e63"/><path d="M285.478,28.359c0-11.839,5.894-17.35,13.131-17.35,6.661,0,11.36,3.883,12.124,12.078l-3.546.191c-.577-6.039-3.692-8.915-8.579-8.915-5.272,0-9.393,3.883-9.393,14s4.122,14,9.393,14c4.89,0,8.005-2.876,8.579-8.915l3.546.191c-.91,8.2-5.369,12.078-12.124,12.078C291.375,45.709,285.478,40.2,285.478,28.359Z" transform="translate(-88.518 -3.413)" fill="#001e63"/><path d="M328.269,35.217l3.5-.382c.382,5.223,2.733,7.668,7.092,7.668,4.025,0,6.758-2.493,6.758-6.327,0-3.5-2.108-5.129-5.608-6.182l-4.313-1.341c-3.834-1.15-6.9-4.122-6.9-8.818,0-5.129,4.411-8.818,9.97-8.818,5.13,0,9.585,2.445,10.113,9.345l-3.5.337c-.382-4.7-2.972-6.47-6.612-6.47-3.692,0-6.279,2.157-6.279,5.56,0,3.018,2.157,5.032,5.608,6.039l3.692,1.15c4.41,1.341,7.571,3.786,7.571,8.818,0,6.23-4.89,9.922-10.495,9.922C332.964,45.712,328.508,42.548,328.269,35.217Z" transform="translate(-101.786 -3.416)" fill="#001e63"/><path d="M362.859,11.022v.8h-1.174V16.1h-.9V11.82H359.6v-.8Zm3.77,0H367.8V16.1h-.871v-2l.03-1.116h-.03l-.767,3.118h-1.074l-.783-3.118h-.03l.03,1.116v2h-.87V11.022h1.189l.986,3.843h.03Z" transform="translate(-111.5 -3.418)" fill="#001e63"/><path d="M38.674,0C30.414.006,21.312,5.059,15.6,9.846l.452.652C24.921,4.283,37.227.24,40.621,6.3c1.79,3.2-1.25,9.661-5.533,14.766,1.025-2.254.349-6.585-5.621-6.585C19.54,14.484,0,27.636,0,41.088,0,46.478,3.737,50,9.9,50c16.489,0,38.85-27.026,38.85-40.6C48.744,4.6,45.987,0,38.674,0ZM15.536,35.459c-2.851,0-4.222-2.193-3.509-4.732C13.507,25.47,23,17.675,29.477,17.675c4.723,0,4.362,4.222,1.6,7.829L29.544,27.2C24.057,32.583,18.97,35.459,15.536,35.459Z" fill="#001e63"/></g></g></svg>