<?xml version="1.0" encoding="UTF-8"?><svg id="_イヤー_2" xmlns="http://www.w3.org/2000/svg" viewBox="0 0 277.38 277.98"><defs><style>.cls-1{fill:#fff;}.cls-2{fill:#109c71;}.cls-3,.cls-4{fill:#19244f;}.cls-3,.cls-4,.cls-5{font-family:NotoSansCJKjp-Medium-90ms-RKSJ-H, 'Noto Sans CJK JP';}.cls-3,.cls-5{font-size:10px;}.cls-6,.cls-7{fill:none;stroke:#19244f;stroke-miterlimit:10;}.cls-4{font-size:16px;glyph-orientation-vertical:0deg;letter-spacing:.2em;text-orientation:upright;writing-mode:tb;}.cls-7{stroke-width:1.5px;}.cls-5{fill:#1b2a51;}</style></defs><g id="_イヤー_1-2"><g><rect class="cls-7" x=".75" y=".75" width="68.66" height="276.48"/><text class="cls-4" transform="translate(35.08 91.19)"><tspan x="0" y="0">ご契約者様</tspan></text></g><g><polygon class="cls-2" points="124.18 96.2 131.32 96.2 121.18 118.7 277.38 118.7 277.38 126.2 110.67 126.2 124.18 96.2"/><g><polygon class="cls-7" points="223.64 21.59 216.46 21.59 226.66 44.09 69.42 44.09 69.42 51.59 237.25 51.59 223.64 21.59"/><text class="cls-3" transform="translate(76.87 35.48)"><tspan x="0" y="0">事故のご連絡</tspan></text></g><g><polygon class="cls-6" points="223.64 160.89 216.46 160.89 226.66 183.39 69.42 183.39 69.42 190.89 237.25 190.89 223.64 160.89"/><text class="cls-3" transform="translate(76.87 174.79)"><tspan x="0" y="0">保険金請求書のご返送</tspan></text></g><text class="cls-3" transform="translate(169.99 93.95)"><tspan x="0" y="0">事故状況のヒアリング</tspan><tspan x="10" y="17.01">保険金請求書の送付</tspan></text><polygon class="cls-2" points="123.16 220.05 130.34 220.05 120.13 242.55 277.38 242.55 277.38 250.05 109.55 250.05 123.16 220.05"/><text class="cls-5" transform="translate(192.34 236.71)"><tspan x="0" y="0">保険金のお支払い</tspan></text><text/></g><rect class="cls-1" x="55.95" y="183.95" width="15.29" height="6.46"/><rect class="cls-1" x="64.6" y="44.85" width="6.3" height="5.99"/></g></svg>