<svg xmlns="http://www.w3.org/2000/svg" width="371.49" height="72.471" viewBox="0 0 371.49 72.471"><path d="M80.565,36.156c0-16.882,8.542-25.148,19.032-25.148s19.032,8.265,19.032,25.148S110.087,61.3,99.6,61.3,80.565,53.039,80.565,36.156Zm32.648,0c0-14.658-6.393-20.285-13.616-20.285S85.981,21.5,85.981,36.156,92.373,56.442,99.6,56.442,113.213,50.814,113.213,36.156Z" fill="#001e63"/><path d="M125.575,60.469v-33.9h4.863v5.975h.277c1.459-3.961,4.722-6.806,10.142-6.806,7.153,0,11.044,5.069,11.044,13.128v21.6h-5.139V39.282c0-5.9-2.849-9.518-7.848-9.518s-8.2,3.75-8.2,9.655v21.05Z" fill="#001e63"/><path d="M187.328,44.7H163.987c.348,7.153,3.821,12.015,9.378,12.015,4.722,0,7.434-2.5,8.265-6.946l5.14.418c-1.183,7.153-5.9,11.114-13.41,11.114-8.265,0-14.517-6.392-14.517-17.784s6.67-17.784,14.588-17.784c8.683,0,13.893,6.111,13.893,16.394V44.7ZM164.2,40.254h17.925c-.277-6.392-3.614-9.931-8.683-9.931C168.225,30.322,164.963,33.584,164.2,40.254Z" fill="#001e63"/><path d="M224.909,60.468l-3.685-11.184H200.245l-3.68,11.184h-5.628l16.4-48.625h6.8l16.4,48.625ZM201.845,44.422h17.784l-8.754-26.537H210.6Z" fill="#001e63"/><path d="M233.939,46.092l5.069-.554c.554,7.571,3.961,11.114,10.279,11.114,5.834,0,9.795-3.614,9.795-9.171,0-5.069-3.055-7.434-8.129-8.96L244.7,36.578c-5.557-1.666-10-5.975-10-12.781,0-7.434,6.393-12.78,14.452-12.78,7.434,0,13.892,3.543,14.657,13.545l-5.069.488c-.554-6.806-4.308-9.378-9.584-9.378-5.351,0-9.1,3.126-9.1,8.059,0,4.374,3.126,7.294,8.129,8.753l5.351,1.666c6.392,1.943,10.973,5.487,10.973,12.78,0,9.03-7.087,14.381-15.211,14.381C240.745,61.3,234.286,56.718,233.939,46.092Z" fill="#001e63"/><path d="M272.28,60.468V11.844H277.7V60.468Z" fill="#001e63"/><path d="M285.478,36.156c0-17.159,8.543-25.148,19.032-25.148,9.655,0,16.465,5.627,17.573,17.507l-5.139.277c-.836-8.753-5.351-12.921-12.434-12.921-7.641,0-13.615,5.627-13.615,20.285s5.974,20.285,13.615,20.285c7.088,0,11.6-4.168,12.434-12.921l5.139.277C320.764,55.676,314.3,61.3,304.51,61.3,294.025,61.3,285.478,53.316,285.478,36.156Z" fill="#001e63"/><path d="M328.269,46.092l5.069-.554c.554,7.571,3.961,11.114,10.279,11.114,5.834,0,9.795-3.614,9.795-9.171,0-5.069-3.055-7.434-8.129-8.96l-6.252-1.943c-5.557-1.666-10-5.975-10-12.781,0-7.434,6.393-12.78,14.451-12.78,7.435,0,13.893,3.543,14.658,13.545l-5.069.488c-.554-6.806-4.308-9.378-9.584-9.378-5.351,0-9.1,3.126-9.1,8.059,0,4.374,3.126,7.294,8.129,8.753l5.351,1.666c6.392,1.943,10.973,5.487,10.973,12.78,0,9.03-7.087,14.381-15.211,14.381C335.074,61.3,328.616,56.718,328.269,46.092Z" fill="#001e63"/><path d="M364.324,11.022v1.156h-1.7v6.2h-1.3v-6.2H359.6V11.022Zm5.465,0h1.7v7.355h-1.262v-2.9l.044-1.618h-.044l-1.112,4.519H367.56l-1.135-4.519h-.044l.044,1.618v2.9h-1.261V11.022h1.723l1.429,5.57h.044Z" fill="#001e63"/><path d="M56.055,0C44.083.009,30.889,7.333,22.615,14.271l.655.945C36.121,6.208,53.958.347,58.877,9.136c2.594,4.638-1.811,14-8.019,21.4,1.486-3.267.506-9.545-8.147-9.545C28.322,20.993,0,40.056,0,59.554c0,7.813,5.416,12.917,14.346,12.917,23.9,0,56.31-39.172,56.31-58.851C70.651,6.674,66.654,0,56.055,0ZM22.519,51.394c-4.133,0-6.12-3.179-5.087-6.859,2.145-7.619,15.911-18.918,25.293-18.918,6.845,0,6.322,6.12,2.313,11.347l-2.216,2.453C34.868,47.227,27.5,51.394,22.519,51.394Z" fill="#001e63"/></svg>