<?xml version="1.0" encoding="UTF-8"?><svg id="_イヤー_2" xmlns="http://www.w3.org/2000/svg" viewBox="0 0 219.46 257.82"><defs><style>.cls-1{fill:#1b2a51;}.cls-2{fill:#109c71;}.cls-3{stroke:#19244f;stroke-miterlimit:10;stroke-width:1.5px;}.cls-3,.cls-4{fill:none;}.cls-5{fill:#19244f;}</style></defs><g id="_イヤー_1-2"><polygon class="cls-3" points="153.74 65.16 146.62 65.16 156.74 87.66 .75 87.66 .75 95.16 167.24 95.16 153.74 65.16"/><g><path class="cls-5" d="M19.59,76.65h-1.25v2.1h-1.13v-.52h-2.55v.62c0,.61-.16,.86-.56,1.02-.41,.14-1.03,.16-2.04,.16-.06-.25-.23-.66-.38-.9,.66,.02,1.38,.02,1.57,.01,.22-.01,.29-.07,.29-.28v-.64h-3.74v-.84h3.74v-.74h-4.8v-.88h4.8v-.68h-3.63v-.79h3.63v-.71h-3.32v-2.21h3.32v-.61h-4.55v-.9h4.55v-.88h1.13v.88h4.68v.9h-4.68v.61h3.49v2.21h-3.49v.71h3.68v1.48h1.25v.88Zm-6.06-3.8v-.72h-2.25v.72h2.25Zm1.13-.72v.72h2.36v-.72h-2.36Zm0,3.65h2.55v-.68h-2.55v.68Zm2.55,.88h-2.55v.74h2.55v-.74Z"/><path class="cls-5" d="M30.82,72.22c-.32,1.91-.82,3.45-1.58,4.7,.65,.95,1.47,1.67,2.52,2.12-.25,.23-.61,.66-.77,.97-1.02-.5-1.81-1.24-2.46-2.12-.75,.88-1.71,1.57-2.93,2.12-.11-.26-.42-.77-.63-1,1.27-.52,2.22-1.2,2.95-2.11-.49-.91-.88-1.97-1.17-3.12-.22,.4-.44,.76-.7,1.07-.12-.12-.31-.28-.52-.44v4.31h-3.33v.77h-1.03v-5.17h1.63v-2.03h-2.13v-1.03h2.13v-2.25h1.12v2.25h2.04v1.03h-2.04v2.03h1.49c-.11-.08-.2-.16-.29-.2,1.03-1.16,1.7-3.09,2.05-5.12l1.13,.18c-.12,.68-.29,1.36-.48,1.99h3.85v1.06h-.84Zm-6.36,3.14h-2.27v2.31h2.27v-2.31Zm2.99-3.12c.24,1.32,.62,2.55,1.15,3.6,.53-1,.86-2.19,1.1-3.62h-2.24v.02Z"/><path class="cls-5" d="M38.61,79.51l-.71-1.13c.41-.04,.77-.1,1.07-.17,1.54-.35,2.9-1.48,2.9-3.41,0-1.74-1.05-3.12-2.9-3.35-.17,1.08-.37,2.24-.72,3.37-.72,2.45-1.71,3.8-2.9,3.8s-2.28-1.32-2.28-3.32c0-2.69,2.35-4.99,5.36-4.99s4.7,2.02,4.7,4.52-1.61,4.25-4.52,4.67Zm-3.23-2.3c.54,0,1.1-.78,1.66-2.63,.3-.95,.52-2.04,.66-3.09-2.16,.35-3.42,2.22-3.42,3.71,0,1.38,.59,2.01,1.1,2.01Z"/><path class="cls-5" d="M47.12,76.87c0,.85,.84,1.44,2.69,1.44,1.63,0,3.17-.18,4.14-.47v1.32c-.92,.24-2.41,.42-4.1,.42-2.58,0-3.97-.86-3.97-2.43,0-.65,.13-1.22,.24-1.69l1.24,.12c-.13,.46-.23,.86-.23,1.3Zm2.73-6.09c1.16,0,2.45-.07,3.33-.17v1.25c-.83,.07-2.21,.14-3.33,.14-1.22,0-2.25-.05-3.21-.13v-1.24c.88,.1,1.98,.14,3.21,.14Zm4.63,.2l-.79,.35c-.24-.49-.62-1.21-.96-1.67l.78-.32c.3,.43,.73,1.18,.97,1.64Zm1.39-.52l-.78,.35c-.26-.52-.65-1.21-.98-1.66l.77-.32c.31,.44,.77,1.2,1,1.63Z"/><path class="cls-5" d="M59.23,77.49c.52,.83,1.46,1.2,2.79,1.26,1.36,.06,4.14,.02,5.66-.08-.13,.25-.3,.77-.36,1.09-1.38,.06-3.92,.08-5.31,.04-1.49-.06-2.52-.46-3.25-1.38-.5,.49-1.03,.97-1.62,1.49l-.55-1.1c.48-.32,1.07-.78,1.57-1.22v-2.89h-1.44v-1.03h2.51v3.84Zm-.58-5.56c-.34-.6-1.14-1.43-1.85-2l.85-.62c.7,.54,1.54,1.33,1.89,1.92l-.9,.71Zm4.3,5.21h-3.29v-.91h3.29v-.71h-2.6v-3.93h2.6v-.68h-3.12v-.92h3.12v-.97h1.08v.97h3.26v.92h-3.26v.68h2.69v3.93h-2.69v.71h3.43v.91h-3.43v1.26h-1.08v-1.26Zm-1.57-3.98h1.57v-.78h-1.57v.78Zm1.57,1.56v-.79h-1.57v.79h1.57Zm1.08-2.34v.78h1.62v-.78h-1.62Zm1.62,1.55h-1.62v.79h1.62v-.79Z"/><path class="cls-5" d="M70.12,76.02c-.16,1.13-.43,2.29-.8,3.06-.18-.13-.62-.34-.85-.42,.36-.72,.59-1.77,.71-2.81l.95,.17Zm8.9-5.58c-.44,1.14-1.08,2.12-1.86,2.95,.83,.62,1.78,1.12,2.72,1.44-.24,.23-.56,.64-.73,.9l-.24-.1v4.34h-1.09v-.52h-3.01v.54h-1.04v-4.21c-.11,.05-.23,.1-.34,.14-.07-.14-.21-.36-.37-.55l-.62,.29c-.04-.19-.11-.41-.18-.64l-.79,.05v4.93h-1v-4.87c-.66,.04-1.27,.07-1.81,.11l-.1-.98,.84-.02c.22-.29,.46-.61,.68-.95-.37-.54-.96-1.19-1.49-1.68l.54-.73c.11,.08,.22,.18,.32,.28,.37-.66,.77-1.52,.98-2.17l.98,.38c-.42,.8-.92,1.73-1.36,2.39,.22,.23,.42,.46,.58,.66,.43-.71,.84-1.44,1.14-2.05l.92,.42c-.67,1.09-1.54,2.4-2.31,3.41,.48-.01,.98-.04,1.5-.07-.16-.34-.32-.67-.49-.97l.75-.31c.4,.64,.77,1.43,.97,2.06,.9-.37,1.76-.86,2.51-1.48-.44-.43-.84-.9-1.19-1.39-.36,.4-.74,.78-1.19,1.14-.14-.23-.5-.58-.74-.72,1.32-1,2.19-2.35,2.65-3.47l1.08,.19c-.13,.3-.29,.61-.46,.92h2.35l.19-.05,.68,.38Zm-6.53,5.31c.3,.68,.62,1.58,.76,2.17l-.85,.29c-.12-.59-.41-1.5-.71-2.19l.8-.26Zm6.21-.22c-.8-.36-1.58-.85-2.29-1.43-.66,.58-1.37,1.04-2.11,1.43h4.4Zm-.89,2.95v-1.99h-3.01v1.99h3.01Zm-2.73-7.26c.33,.53,.78,1.04,1.29,1.51,.49-.5,.9-1.07,1.22-1.68h-2.4l-.12,.17Z"/></g><polygon class="cls-2" points="61.54 123.75 68.67 123.75 58.54 146.25 218.7 146.25 218.7 153.75 48.04 153.75 61.54 123.75"/><g><path class="cls-5" d="M99.72,119.09h-1.25v2.1h-1.13v-.52h-2.55v.62c0,.61-.16,.86-.56,1.02-.41,.14-1.03,.16-2.04,.16-.06-.25-.23-.66-.38-.9,.66,.02,1.38,.02,1.57,.01,.22-.01,.29-.07,.29-.28v-.64h-3.74v-.84h3.74v-.74h-4.8v-.88h4.8v-.68h-3.63v-.79h3.63v-.71h-3.32v-2.21h3.32v-.61h-4.55v-.9h4.55v-.88h1.13v.88h4.68v.9h-4.68v.61h3.49v2.21h-3.49v.71h3.68v1.48h1.25v.88Zm-6.06-3.8v-.72h-2.26v.72h2.26Zm1.13-.72v.72h2.36v-.72h-2.36Zm0,3.65h2.55v-.68h-2.55v.68Zm2.55,.88h-2.55v.74h2.55v-.74Z"/><path class="cls-5" d="M110.96,114.67c-.32,1.91-.82,3.45-1.58,4.7,.65,.95,1.48,1.67,2.52,2.12-.25,.23-.61,.66-.77,.97-1.02-.5-1.81-1.24-2.46-2.12-.76,.88-1.71,1.57-2.93,2.12-.11-.26-.42-.77-.64-1,1.27-.52,2.22-1.2,2.95-2.11-.49-.91-.88-1.97-1.17-3.12-.22,.4-.44,.76-.7,1.07-.12-.12-.31-.28-.52-.44v4.31h-3.33v.77h-1.03v-5.17h1.63v-2.03h-2.13v-1.03h2.13v-2.25h1.12v2.25h2.04v1.03h-2.04v2.03h1.49c-.11-.08-.2-.16-.29-.2,1.03-1.16,1.7-3.09,2.05-5.12l1.13,.18c-.12,.68-.29,1.36-.48,1.99h3.85v1.06h-.84Zm-6.36,3.14h-2.27v2.31h2.27v-2.31Zm2.99-3.12c.24,1.32,.62,2.55,1.15,3.6,.53-1,.86-2.19,1.1-3.62h-2.24v.02Z"/><path class="cls-5" d="M120.5,115.96c.58,2.45,1.67,4.51,3.44,5.53-.28,.22-.63,.64-.82,.94-1.48-1-2.47-2.63-3.12-4.65-.42,1.63-1.24,3.27-2.88,4.67-.2-.23-.58-.49-.88-.7v.68h-1.09v-4.14c-.63,.59-1.28,1.19-1.85,1.67l-.61-.94c.62-.48,1.56-1.28,2.46-2.1v-1.74l-.9,.58c-.26-.61-.89-1.56-1.42-2.27l.86-.52c.54,.66,1.15,1.56,1.45,2.16v-3.71h1.09v10.25c2.08-1.74,2.72-3.84,2.93-5.72h-2.57v-1.09h2.63c.01-.18,.01-.35,.01-.52v-2.88h1.1v2.88c0,.17,0,.34-.01,.52h3.3v1.09h-3.14Zm1.96-1.58c-.26-.55-.84-1.46-1.34-2.12l.84-.47c.5,.62,1.13,1.5,1.42,2.04l-.91,.55Z"/><path class="cls-5" d="M127.1,116.81c-.5-.4-1.52-.91-2.35-1.2l.59-.85c.8,.25,1.85,.72,2.38,1.1l-.61,.95Zm1.34,1.54c-.7,1.32-1.54,2.81-2.29,3.96l-.94-.7c.67-.94,1.67-2.53,2.41-3.95l.81,.68Zm-.77-4.79c-.44-.41-1.39-.92-2.17-1.24l.61-.83c.77,.26,1.73,.76,2.21,1.15l-.65,.91Zm6.84,7.78c.26,0,.31-.26,.35-1.75,.24,.18,.7,.36,1,.43-.11,1.81-.38,2.3-1.23,2.3h-1.07c-1,0-1.22-.34-1.22-1.42v-3.99h-1.18c-.13,2.73-.53,4.53-2.93,5.54-.11-.28-.43-.71-.66-.9,2.12-.83,2.39-2.29,2.48-4.64h-1.15v-4.95h6.24v4.95h-1.69v3.98c0,.38,.05,.44,.3,.44h.77Zm-4.53-5.47h4.02v-2.88h-4.02v2.88Z"/><path class="cls-5" d="M142.74,121.96l-.71-1.13c.41-.04,.77-.1,1.07-.17,1.54-.35,2.9-1.48,2.9-3.41,0-1.74-1.06-3.12-2.9-3.35-.17,1.08-.37,2.24-.72,3.37-.72,2.45-1.71,3.8-2.9,3.8s-2.28-1.32-2.28-3.32c0-2.69,2.35-4.99,5.36-4.99s4.7,2.02,4.7,4.52-1.61,4.25-4.52,4.67Zm-3.23-2.3c.54,0,1.1-.78,1.66-2.63,.3-.95,.52-2.04,.66-3.09-2.16,.35-3.42,2.22-3.42,3.71,0,1.38,.59,2.01,1.1,2.01Z"/><path class="cls-5" d="M152.17,113.28v2.52c1.44-.35,3.31-.95,4.47-1.44,.4-.17,.77-.35,1.17-.6l.52,1.21c-.39,.16-.88,.37-1.25,.52-1.3,.52-3.38,1.16-4.92,1.55v2.46c0,.56,.25,.72,.82,.83,.37,.06,.94,.08,1.5,.08,1.26,0,3.14-.13,4.14-.4v1.38c-1.08,.16-2.89,.25-4.21,.25-.73,0-1.45-.05-1.95-.13-.97-.17-1.54-.66-1.54-1.67v-6.56c0-.34-.02-.83-.07-1.09h1.4c-.05,.31-.08,.76-.08,1.09Z"/><path class="cls-5" d="M171.18,113.9c-.52,.88-1.65,2.4-2.94,3.31l-1-.8c1.06-.61,2.1-1.8,2.45-2.48h-6.57c-.48,0-.9,.04-1.42,.07v-1.33c.44,.06,.94,.11,1.42,.11h6.7c.26,0,.8-.04,1-.08l.76,.71c-.11,.13-.3,.36-.4,.5Zm-7.78,8.14l-1.1-.9c.35-.12,.77-.31,1.15-.59,1.72-1.1,1.99-2.61,1.99-4.61,0-.32-.01-.61-.07-.96h1.37c0,3.13-.18,5.43-3.33,7.05Z"/><path class="cls-5" d="M176.12,113.3v4.02c0,.31,.02,.73,.05,.97h-1.38c.01-.2,.05-.62,.05-.97v-4.02c0-.22-.01-.64-.05-.89h1.38c-.02,.25-.05,.55-.05,.89Zm5.57,.12v2.13c0,2.75-.43,3.77-1.32,4.77-.78,.91-1.99,1.46-2.87,1.75l-1-1.04c1.14-.29,2.13-.74,2.88-1.56,.84-.96,1-1.9,1-3.99v-2.06c0-.43-.04-.79-.07-1.1h1.43c-.02,.31-.05,.67-.05,1.1Z"/><path class="cls-5" d="M190.55,118.91c1.93-1.19,3.43-2.99,4.16-4.52l.73,1.31c-.86,1.56-2.34,3.19-4.21,4.34-1.21,.74-2.73,1.45-4.59,1.79l-.8-1.24c2-.3,3.56-.97,4.71-1.68Zm-.41-3.84l-.95,.97c-.62-.64-2.11-1.94-3-2.54l.88-.94c.84,.56,2.4,1.81,3.07,2.51Z"/><path class="cls-5" d="M201.86,113.52c-.06,.11-.11,.2-.18,.31h2.89c.33,0,.67-.05,.9-.12l.98,.6c-.12,.19-.25,.49-.34,.73-.32,1.15-1.03,2.76-2.11,4.08-1.1,1.36-2.55,2.46-4.8,3.32l-1.12-1.01c2.31-.68,3.74-1.75,4.81-2.99,.89-1.02,1.61-2.53,1.82-3.54h-3.75c-.76,1.03-1.79,2.09-3.03,2.93l-1.06-.78c2.09-1.26,3.2-2.91,3.77-3.97,.14-.25,.35-.73,.44-1.08l1.39,.46c-.24,.36-.49,.82-.62,1.06Zm4.64-.06l-.79,.34c-.24-.48-.62-1.2-.95-1.65l.77-.32c.3,.43,.73,1.18,.97,1.64Zm1.38-.53l-.78,.35c-.25-.52-.65-1.2-.98-1.66l.77-.32c.32,.44,.78,1.2,1,1.63Z"/><path class="cls-5" d="M104.56,128.82c-.34,.83-.73,1.64-1.18,2.43v8.18h-1.06v-6.56c-.36,.49-.74,.95-1.12,1.33-.11-.26-.42-.86-.62-1.13,1.16-1.1,2.27-2.83,2.93-4.59l1.04,.34Zm4.51,6.4c.73,1.16,1.87,2.27,2.96,2.88-.24,.22-.61,.61-.78,.89-1.01-.67-2.03-1.79-2.78-2.99v3.47h-1.12v-3.41c-.8,1.2-1.86,2.27-2.93,2.9-.18-.28-.52-.67-.77-.89,1.15-.59,2.33-1.68,3.11-2.85h-2.72v-1.01h3.31v-1.31h-2.47v-3.91h6.2v3.91h-2.61v1.31h3.24v1.01h-2.64Zm-3.14-3.31h4.04v-1.93h-4.04v1.93Z"/><path class="cls-5" d="M116.87,129.35c-.33,1.01-.79,2.29-1.2,3.27,.86,.91,1.08,1.71,1.08,2.43s-.16,1.18-.53,1.42c-.18,.14-.41,.22-.66,.24-.24,.04-.55,.04-.85,.02,0-.29-.1-.71-.26-.98,.26,.02,.5,.02,.67,.02,.14-.01,.29-.04,.4-.11,.16-.12,.23-.41,.23-.76-.01-.59-.23-1.32-1.05-2.17,.32-.84,.66-1.94,.9-2.78h-1.34v9.5h-.98v-10.51h2.71l.17-.04,.73,.43Zm4.1,6.86c.7,1.4,1.64,1.96,2.95,2.36-.25,.23-.53,.61-.65,.94-1.32-.5-2.3-1.16-3.03-2.57-.46,1.03-1.44,1.96-3.39,2.58-.1-.23-.41-.66-.61-.84,2.07-.65,2.89-1.51,3.2-2.47h-2.33v-3.13h2.51v-.89h-1.71v-.64c-.35,.23-.71,.44-1.07,.62-.1-.26-.34-.67-.53-.91,1.34-.61,2.64-1.77,3.27-2.81h1.01c.85,1.14,2.16,2.16,3.41,2.65-.2,.26-.43,.67-.58,.98-.31-.16-.63-.35-.96-.55v.65h-1.83v.89h2.64v3.13h-2.29Zm-1.37-.89c.01-.16,.01-.3,.01-.46v-.9h-1.52v1.35h1.51Zm2.42-4.08c-.74-.55-1.44-1.2-1.91-1.82-.41,.6-1.06,1.26-1.79,1.82h3.69Zm-1.4,2.72v.92c0,.14,0,.29-.01,.43h1.63v-1.35h-1.62Z"/><path class="cls-5" d="M130.8,138.13h4.53v.97h-10.11v-.97h4.4v-2.72h-3.83v-.96h3.83v-1.43h-2.35v-.62c-.6,.43-1.22,.83-1.87,1.18-.13-.25-.46-.67-.7-.9,2.04-1.01,3.99-2.77,4.89-4.25h1.14c1.27,1.75,3.28,3.3,5.13,4.1-.26,.29-.53,.67-.72,1-.64-.32-1.28-.73-1.92-1.19v.68h-2.43v1.43h3.91v.96h-3.91v2.72Zm-3.21-2.54c.47,.64,.95,1.49,1.12,2.06l-.97,.43c-.14-.58-.6-1.48-1.06-2.13l.91-.36Zm5.24-3.55c-1.04-.79-1.98-1.68-2.6-2.52-.58,.82-1.45,1.7-2.48,2.52h5.09Zm-1.24,5.67c.41-.56,.92-1.48,1.21-2.13l1.07,.4c-.47,.76-1.01,1.57-1.45,2.11l-.83-.37Z"/><path class="cls-5" d="M141.23,131.31h-4.47v-.89h4.47v.89Zm-.4,7.48h-2.58v.5h-.96v-4.03h3.54v3.53Zm-.01-5.88h-3.51v-.86h3.51v.86Zm-3.51,.73h3.51v.88h-3.51v-.88Zm3.49-3.93h-3.44v-.88h3.44v.88Zm-2.54,6.45v1.73h1.62v-1.73h-1.62Zm9.49-4.14v.82h-6.54v-.82h2.72v-.66h-2.12v-.78h2.12v-.6h-2.43v-.82h2.43v-.73h1.06v.73h2.52v.82h-2.52v.6h2.33v.78h-2.33v.66h2.76Zm-.68,6.31c0,.5-.11,.77-.44,.92-.36,.14-.89,.14-1.64,.14-.04-.26-.16-.65-.29-.9,.49,.02,.98,.01,1.13,.01,.16-.01,.21-.05,.21-.19v-1.1h-2.92v2.21h-1.03v-5.98h4.99v4.89Zm-3.96-4.08v.72h2.92v-.72h-2.92Zm2.92,2.19v-.72h-2.92v.72h2.92Z"/><path class="cls-5" d="M153.08,136.12c-1.24,.78-2.62,1.6-3.66,2.19l-.7-1.01c1.02-.5,2.55-1.37,3.99-2.19l.36,1.01Zm6-3.62c-.74,.84-1.69,1.77-2.46,2.43,.89,1.16,1.98,2.11,3.25,2.67-.25,.24-.62,.67-.8,1-1.83-.92-3.24-2.6-4.25-4.64v4.05c0,.71-.17,1.04-.6,1.24-.43,.18-1.18,.22-2.22,.22-.06-.32-.24-.84-.4-1.18,.77,.02,1.54,.02,1.77,.01,.22,0,.3-.07,.3-.29v-6.58h-4.59v-1.08h4.59v-1.88h1.14v1.88h2.94c-.5-.38-1.32-.86-1.97-1.2l.67-.71c.72,.35,1.7,.9,2.21,1.3l-.55,.61h1.4v1.08h-4.7v.13c.31,.89,.72,1.75,1.22,2.54,.72-.67,1.55-1.57,2.05-2.3l.98,.7Zm-7.57,2.29c-.35-.62-1.15-1.55-1.86-2.19l.84-.59c.71,.61,1.56,1.5,1.92,2.11l-.9,.67Z"/><path class="cls-5" d="M171.59,134.43v.8h-10.63v-.8h4.7v-.58h-3.88v-.72h3.88v-.55h-3.59v-.71h3.59v-.59h-4.69v-.8h4.69v-.58h-3.44v-.68h3.44v-.82h1.13v.82h3.37v1.26h1.42v.8h-1.42v1.3h-3.37v.55h3.96v.72h-3.96v.58h4.8Zm-9.12,1.3h7.75v3.74h-1.13v-.35h-5.53v.36h-1.09v-3.75Zm1.09,.72v.6h5.53v-.6h-5.53Zm5.53,1.93v-.64h-5.53v.64h5.53Zm-2.3-7.89h2.27v-.58h-2.27v.58Zm0,1.39h2.27v-.59h-2.27v.59Z"/><path class="cls-5" d="M178.74,138.97l-.71-1.13c.41-.04,.77-.1,1.07-.17,1.54-.35,2.9-1.48,2.9-3.41,0-1.74-1.06-3.12-2.9-3.35-.17,1.08-.37,2.24-.72,3.37-.72,2.45-1.71,3.8-2.9,3.8s-2.28-1.32-2.28-3.32c0-2.69,2.35-4.99,5.36-4.99s4.7,2.02,4.7,4.52-1.61,4.25-4.52,4.67Zm-3.23-2.3c.54,0,1.1-.78,1.66-2.63,.3-.95,.52-2.04,.66-3.09-2.16,.35-3.42,2.22-3.42,3.71,0,1.38,.59,2.01,1.1,2.01Z"/><path class="cls-5" d="M187.53,136.89c.53,.83,1.51,1.21,2.83,1.26,1.33,.05,3.99,.01,5.49-.08-.13,.26-.31,.79-.37,1.14-1.36,.06-3.77,.08-5.13,.02-1.52-.06-2.55-.46-3.31-1.38-.56,.49-1.14,.97-1.76,1.49l-.58-1.15c.54-.34,1.17-.78,1.74-1.24v-2.82h-1.54v-1.03h2.63v3.79Zm-.55-5.6c-.38-.56-1.25-1.37-2-1.9l.83-.67c.76,.52,1.64,1.26,2.05,1.83l-.88,.73Zm5.66,2.77c.5,1.33,1.51,2.28,3.03,2.67-.25,.22-.56,.66-.72,.94-1.45-.49-2.42-1.43-3.02-2.77-.43,.98-1.31,1.97-3.03,2.73-.13-.23-.48-.61-.73-.8,1.97-.77,2.66-1.81,2.89-2.77h-2.94v-1h3.06v-1.43h-2.66v-1.01h1.37c-.17-.52-.56-1.22-.97-1.76l.95-.4c.46,.56,.91,1.34,1.07,1.87l-.66,.29h2.96l-.68-.24c.37-.53,.83-1.35,1.06-1.95l1.14,.36c-.4,.66-.84,1.36-1.21,1.83h1.74v1.01h-2.96v1.43h3.33v1h-3Z"/><path class="cls-5" d="M200.8,128.87c-.34,.85-.74,1.73-1.21,2.53v8.04h-1.13v-6.3c-.34,.46-.7,.88-1.05,1.24-.12-.26-.46-.86-.67-1.14,1.19-1.14,2.3-2.9,2.96-4.71l1.1,.35Zm6.93,3.31h-1.43v5.85c0,.78-.2,1.09-.71,1.26-.5,.18-1.34,.2-2.65,.19-.06-.31-.26-.82-.43-1.12,.97,.05,1.97,.04,2.25,.02,.28-.01,.38-.1,.38-.36v-5.85h-4.69v-1.12h4.69v-2.48h1.15v2.48h1.43v1.12Zm-4.97,4.49c-.32-.74-1.07-2-1.64-2.94l.97-.46c.58,.9,1.35,2.11,1.71,2.83l-1.04,.56Z"/></g><polygon class="cls-2" points="61.54 214.16 68.67 214.16 58.54 236.66 218.7 236.66 218.7 244.16 48.04 244.16 61.54 214.16"/><g><path class="cls-1" d="M111.32,219.92c-.34,.83-.73,1.64-1.18,2.43v8.18h-1.05v-6.56c-.36,.49-.74,.95-1.12,1.33-.11-.26-.42-.86-.62-1.13,1.16-1.1,2.27-2.83,2.93-4.59l1.04,.34Zm4.51,6.4c.73,1.16,1.87,2.27,2.96,2.88-.24,.22-.61,.61-.78,.89-1.01-.67-2.03-1.79-2.78-2.99v3.47h-1.12v-3.41c-.8,1.2-1.86,2.27-2.93,2.9-.18-.28-.52-.67-.77-.89,1.15-.59,2.33-1.68,3.11-2.85h-2.72v-1.01h3.31v-1.31h-2.47v-3.91h6.2v3.91h-2.61v1.31h3.24v1.01h-2.64Zm-3.14-3.31h4.04v-1.93h-4.04v1.93Z"/><path class="cls-1" d="M123.63,220.45c-.33,1.01-.79,2.29-1.2,3.27,.86,.91,1.08,1.71,1.08,2.43s-.16,1.18-.53,1.42c-.18,.14-.41,.22-.66,.24-.24,.04-.55,.04-.85,.02,0-.29-.1-.71-.26-.98,.26,.02,.5,.02,.67,.02,.14-.01,.29-.04,.4-.11,.16-.12,.23-.41,.23-.76-.01-.59-.23-1.32-1.06-2.17,.32-.84,.66-1.94,.9-2.78h-1.34v9.5h-.98v-10.51h2.71l.17-.04,.73,.43Zm4.1,6.86c.7,1.4,1.64,1.96,2.95,2.36-.25,.23-.53,.61-.65,.94-1.32-.5-2.3-1.16-3.04-2.57-.46,1.03-1.44,1.96-3.39,2.58-.1-.23-.41-.66-.61-.84,2.08-.65,2.89-1.51,3.2-2.47h-2.33v-3.13h2.51v-.89h-1.71v-.64c-.35,.23-.71,.44-1.07,.62-.1-.26-.34-.67-.53-.91,1.34-.61,2.64-1.77,3.27-2.81h1.01c.85,1.14,2.16,2.16,3.41,2.65-.2,.26-.43,.67-.58,.98-.31-.16-.64-.35-.96-.55v.65h-1.83v.89h2.64v3.13h-2.29Zm-1.37-.89c.01-.16,.01-.3,.01-.46v-.9h-1.52v1.35h1.51Zm2.42-4.08c-.74-.55-1.44-1.2-1.91-1.82-.41,.6-1.06,1.26-1.79,1.82h3.69Zm-1.4,2.72v.92c0,.14,0,.29-.01,.43h1.63v-1.35h-1.62Z"/><path class="cls-1" d="M137.56,229.23h4.53v.97h-10.11v-.97h4.4v-2.72h-3.83v-.96h3.83v-1.43h-2.35v-.62c-.6,.43-1.22,.83-1.87,1.18-.13-.25-.46-.67-.7-.9,2.04-1.01,3.99-2.77,4.89-4.25h1.14c1.27,1.75,3.27,3.3,5.13,4.1-.26,.29-.53,.67-.72,1-.63-.32-1.28-.73-1.92-1.19v.68h-2.44v1.43h3.91v.96h-3.91v2.72Zm-3.21-2.54c.47,.64,.95,1.49,1.12,2.06l-.97,.43c-.14-.58-.6-1.48-1.05-2.13l.91-.36Zm5.24-3.55c-1.04-.79-1.98-1.68-2.6-2.52-.58,.82-1.45,1.7-2.48,2.52h5.08Zm-1.24,5.67c.41-.56,.92-1.48,1.21-2.13l1.07,.4c-.47,.76-1.01,1.57-1.45,2.11l-.83-.37Z"/><path class="cls-1" d="M149.5,230.07l-.71-1.13c.41-.04,.77-.1,1.07-.17,1.54-.35,2.9-1.48,2.9-3.41,0-1.74-1.06-3.12-2.9-3.35-.17,1.08-.37,2.24-.72,3.37-.72,2.45-1.71,3.8-2.9,3.8s-2.28-1.32-2.28-3.32c0-2.69,2.35-4.99,5.36-4.99s4.7,2.02,4.7,4.52-1.61,4.25-4.52,4.67Zm-3.23-2.3c.54,0,1.1-.78,1.65-2.63,.3-.95,.52-2.04,.66-3.09-2.16,.35-3.42,2.22-3.42,3.71,0,1.38,.59,2.01,1.1,2.01Z"/><path class="cls-1" d="M160,220.88c-.01,.29-.02,.67-.05,1.1,.84-.1,1.7-.26,2.36-.46l.02,1.18c-.7,.16-1.58,.3-2.41,.4-.01,.48-.02,.96-.02,1.39v.42c.88-.25,1.76-.38,2.49-.38,1.79,0,3.13,.96,3.13,2.49,0,1.43-.83,2.42-2.59,2.84-.54,.12-1.08,.16-1.52,.18l-.43-1.22c.48,.01,1,.01,1.44-.08,1.01-.19,1.88-.72,1.88-1.73,0-.92-.83-1.44-1.92-1.44-.84,0-1.67,.14-2.46,.4,.01,1,.05,2,.05,2.48,0,1.27-.47,1.64-1.18,1.64-1.04,0-2.64-.96-2.64-2.11,0-1.02,1.24-2.09,2.65-2.7v-.74c0-.42,0-.88,.01-1.33-.3,.02-.56,.04-.79,.04-.73,0-1.19-.02-1.58-.06l-.04-1.15c.68,.08,1.15,.1,1.6,.1,.25,0,.53-.01,.83-.04,0-.54,.01-.97,.01-1.19,0-.25-.04-.73-.07-.95h1.32c-.04,.23-.07,.64-.1,.92Zm-1.54,7.93c.24,0,.41-.16,.41-.55s-.02-1.08-.04-1.86c-.88,.43-1.5,1.04-1.5,1.52s.72,.89,1.13,.89Zm8.05-5.8l-.59,.96c-.58-.53-2.01-1.38-2.77-1.77l.53-.91c.89,.44,2.23,1.26,2.83,1.73Z"/><path class="cls-1" d="M177.08,224.42c-.64,1.64-1.67,2.89-2.97,3.84,1.24,.62,2.74,1.04,4.46,1.25-.25,.26-.55,.77-.71,1.08-1.92-.29-3.53-.83-4.86-1.63-1.44,.78-3.11,1.28-4.87,1.6-.1-.29-.4-.8-.62-1.07,1.64-.24,3.17-.64,4.47-1.25-.94-.77-1.69-1.7-2.27-2.84l.83-.29h-2v-1.1h3.89v-1.64h-4.44v-1.1h4.44v-1.7h1.15v1.7h4.47v1.1h-4.47v1.64h2.53l.19-.05,.78,.47Zm-6.3,.68c.53,1.02,1.29,1.86,2.28,2.54,1.01-.66,1.84-1.49,2.41-2.54h-4.69Z"/><path class="cls-1" d="M182.52,226.11v3.14c0,.64-.13,.94-.5,1.12-.38,.16-.97,.19-1.88,.19-.05-.29-.18-.76-.32-1.06,.6,.02,1.2,.02,1.38,.01,.18-.01,.24-.06,.24-.26v-2.88l-1.73,.42-.25-1.09c.55-.11,1.24-.25,1.98-.41v-2.35h-1.8v-1.03h1.8v-2.37h1.09v2.37h1.64v1.03h-1.64v2.11c.56-.13,1.14-.26,1.72-.4l.08,1.01-1.8,.44Zm7.06,4.44c-.07-.31-.18-.67-.3-1.06-2.18,.31-4.47,.61-6.08,.83l-.24-1.16c.36-.04,.78-.08,1.22-.13,.74-2.49,1.56-6.27,1.96-9.16l1.21,.22c-.48,2.87-1.28,6.34-2,8.83,1.1-.13,2.34-.28,3.56-.42-.42-1.04-.95-2.17-1.48-3.13l.97-.35c.95,1.63,1.92,3.74,2.25,5.12l-1.08,.42Z"/><path class="cls-1" d="M193.79,222.45c-.01,.76,0,1.76,.08,2.7,.18,1.88,.67,3.15,1.47,3.15,.6,0,1.13-1.31,1.4-2.4l.95,1.12c-.76,2.05-1.5,2.76-2.38,2.76-1.21,0-2.33-1.15-2.65-4.31-.12-1.06-.13-2.49-.13-3.21,0-.3-.02-.8-.1-1.13l1.46,.02c-.06,.35-.12,.97-.12,1.3Zm8.41,5.09l-1.24,.48c-.2-2.06-.89-4.73-2.1-6.16l1.19-.4c1.1,1.39,1.99,4.14,2.15,6.08Z"/></g><rect class="cls-3" x=".75" y=".75" width="217.96" height="49.67"/><g><path class="cls-5" d="M65.7,30.08c0,1.14,1.12,1.92,3.58,1.92,2.18,0,4.23-.24,5.52-.62l.02,1.76c-1.25,.32-3.23,.56-5.49,.56-3.44,0-5.3-1.15-5.3-3.25,0-.86,.18-1.63,.32-2.26l1.65,.16c-.18,.61-.3,1.15-.3,1.73Zm3.65-8.13c1.55,0,3.27-.1,4.45-.22v1.66c-1.11,.1-2.95,.19-4.45,.19-1.63,0-3.01-.06-4.29-.18v-1.65c1.17,.13,2.64,.19,4.29,.19Zm6.18,.27l-1.06,.46c-.32-.66-.83-1.62-1.28-2.23l1.04-.43c.4,.58,.98,1.57,1.3,2.19Zm1.86-.69l-1.04,.46c-.35-.69-.87-1.62-1.31-2.21l1.02-.43c.42,.59,1.03,1.6,1.33,2.18Z"/><path class="cls-5" d="M90.21,30.08c1.06,1.71,3.04,2.53,6.16,2.79-.34,.34-.74,.98-.91,1.41-3.11-.38-5.06-1.34-6.29-3.3-.69,1.34-2.46,2.62-6.74,3.3-.18-.35-.56-.93-.86-1.25,4.4-.67,5.87-1.84,6.32-2.95h-5.92v-1.28h6.1v-1.06h1.52v1.06h6.36v1.28h-5.73Zm-8.44-3.87c.79-.08,1.76-.19,2.83-.3v-1.6h-2.32v-1.15h2.32v-1.26h-2.54v-1.15h2.54v-1.17h1.39v1.17h2.4v1.15h-2.4v1.26h2.21v1.15h-2.21v1.42l2.46-.3,.03,.91c1.79-.98,2.21-2.56,2.35-4.82h-2.08v-1.26h7.06s0,.42-.02,.59c-.16,3.91-.32,5.38-.74,5.89-.27,.35-.58,.48-1.02,.53-.38,.05-1.06,.05-1.74,.03-.03-.4-.18-.99-.4-1.33,.62,.06,1.2,.06,1.44,.06s.38-.03,.53-.19c.22-.3,.38-1.42,.51-4.32h-2.14c-.21,2.82-.8,4.8-3.14,6.02-.13-.27-.43-.67-.69-.93-2.34,.34-4.75,.64-6.5,.86l-.14-1.26Z"/><path class="cls-5" d="M102.77,28.95c-.21,1.5-.58,3.06-1.07,4.08-.24-.18-.83-.45-1.13-.56,.48-.96,.78-2.37,.94-3.75l1.26,.22Zm2.96-4.27c.66,1.04,1.31,2.4,1.54,3.28l-1.14,.54c-.06-.26-.16-.56-.29-.9l-1.18,.08v6.59h-1.33v-6.51c-.91,.05-1.76,.1-2.5,.14l-.13-1.31,1.12-.03c.3-.38,.61-.8,.93-1.25-.5-.7-1.31-1.57-2.02-2.24l.72-.99c.14,.13,.29,.26,.43,.38,.5-.88,1.02-2.03,1.31-2.9l1.34,.48c-.58,1.09-1.25,2.35-1.82,3.22,.3,.32,.58,.64,.78,.93,.62-.96,1.2-1.95,1.62-2.79l1.27,.54c-.91,1.46-2.11,3.22-3.19,4.55l2.13-.08c-.21-.45-.43-.88-.67-1.28l1.07-.46Zm.4,3.97c.43,.96,.87,2.21,1.04,3.02l-1.18,.42c-.14-.83-.58-2.1-.98-3.07l1.12-.37Zm9.03-5.57c-.27,7.06-.48,9.56-1.15,10.37-.38,.53-.79,.67-1.41,.74-.54,.08-1.52,.06-2.46,.02-.03-.43-.21-1.07-.5-1.49,1.04,.08,2,.1,2.38,.1,.34,0,.51-.06,.69-.27,.51-.51,.77-2.88,.98-8.76h-4.88c-.43,.82-.91,1.55-1.41,2.15-.29-.26-.96-.69-1.31-.9,1.22-1.3,2.21-3.38,2.77-5.47l1.52,.35c-.24,.83-.54,1.66-.88,2.45h5.67v.72Zm-4.91,7.12c-.32-.98-1.2-2.53-2.05-3.68l1.2-.59c.87,1.09,1.81,2.61,2.16,3.6l-1.31,.67Z"/><path class="cls-5" d="M128.55,25.86c-.72,.54-1.47,1.02-2.24,1.5h6.21v6.83h-1.54v-.43h-6.03v.5h-1.47v-5.38c-.9,.42-1.81,.8-2.72,1.15-.18-.34-.64-.93-.91-1.23,2.21-.74,4.34-1.73,6.26-2.94h-5.86v-1.33h5.3v-1.79h-3.91v-1.3h3.91v-1.87h1.47v1.87h3.73v.7c.64-.66,1.23-1.34,1.74-2.06l1.28,.67c-1.01,1.38-2.21,2.62-3.54,3.78h4.19v1.33h-5.87Zm2.43,2.74h-6.03v1.33h6.03v-1.33Zm0,3.91v-1.41h-6.03v1.41h6.03Zm-2.93-7.97c.75-.56,1.44-1.17,2.1-1.79h-3.14v1.79h1.04Z"/><path class="cls-5" d="M143.94,29.08c-.21-.5-.67-1.36-1.09-2.11v7.28h-1.38v-6.77c-.48,1.52-1.07,2.93-1.71,3.84-.14-.4-.5-.96-.71-1.28,.95-1.31,1.86-3.68,2.29-5.71h-1.95v-1.38h2.08v-3.38h1.38v3.38h1.71v1.38h-1.71v.88c.43,.58,1.62,2.37,1.87,2.78l-.78,1.09Zm4.26,2.24c-1.2,.7-2.51,1.44-3.57,2.02l-.67-1.25c.99-.45,2.43-1.22,3.86-1.98l.38,1.22Zm3.06-1.2c.74,.99,1.7,1.78,2.83,2.24-.29,.27-.74,.83-.93,1.2-1.36-.7-2.43-1.87-3.23-3.31v2.45c0,.72-.14,1.1-.61,1.34-.46,.22-1.18,.24-2.18,.24-.05-.37-.22-.98-.4-1.34,.62,.03,1.28,.03,1.49,.02,.19,0,.26-.06,.26-.26v-5.75h-3.92v-1.25h3.92v-.99h-3.14v-1.14h3.14v-.9h-3.59v-1.2h1.84c-.18-.46-.46-1.02-.72-1.47l1.17-.4c.38,.56,.77,1.31,.93,1.81l-.18,.06h2.35c.29-.54,.66-1.38,.83-1.94l1.49,.4c-.32,.54-.64,1.09-.93,1.54h1.87v1.2h-3.63v.9h3.27v1.14h-3.27v.99h3.87v1.25h-3.87v.67c.22,.61,.5,1.2,.82,1.74,.61-.56,1.34-1.36,1.78-1.97l1.14,.8c-.67,.77-1.52,1.57-2.16,2.1l-.24-.18Zm-5.22-2.66c.59,.61,1.3,1.44,1.62,2l-1.09,.75c-.3-.56-.98-1.44-1.55-2.08l1.02-.67Z"/></g><polygon class="cls-3" points="153.74 168.96 146.62 168.96 156.74 191.46 .75 191.46 .75 198.95 167.24 198.95 153.74 168.96"/><g><path class="cls-5" d="M12.43,173.01c-.34,.83-.73,1.64-1.18,2.43v8.18h-1.05v-6.56c-.36,.49-.74,.95-1.12,1.33-.11-.26-.42-.86-.62-1.13,1.16-1.1,2.27-2.83,2.93-4.59l1.04,.34Zm4.51,6.4c.73,1.16,1.87,2.27,2.96,2.88-.24,.22-.61,.61-.78,.89-1.01-.67-2.03-1.79-2.78-2.99v3.47h-1.12v-3.41c-.8,1.2-1.86,2.27-2.93,2.9-.18-.28-.52-.67-.77-.89,1.15-.59,2.33-1.68,3.11-2.85h-2.72v-1.01h3.31v-1.31h-2.47v-3.91h6.2v3.91h-2.61v1.31h3.24v1.01h-2.64Zm-3.14-3.31h4.04v-1.93h-4.04v1.93Z"/><path class="cls-5" d="M24.74,173.54c-.33,1.01-.79,2.29-1.2,3.27,.86,.91,1.08,1.71,1.08,2.43s-.16,1.18-.53,1.42c-.18,.14-.41,.22-.66,.24-.24,.04-.55,.04-.85,.02,0-.29-.1-.71-.26-.98,.26,.02,.5,.02,.67,.02,.14-.01,.29-.04,.4-.11,.16-.12,.23-.41,.23-.76-.01-.59-.23-1.32-1.06-2.17,.32-.84,.66-1.94,.9-2.78h-1.34v9.5h-.98v-10.51h2.71l.17-.04,.73,.43Zm4.1,6.86c.7,1.4,1.64,1.96,2.95,2.36-.25,.23-.53,.61-.65,.94-1.32-.5-2.3-1.16-3.04-2.57-.46,1.03-1.44,1.96-3.39,2.58-.1-.23-.41-.66-.61-.84,2.08-.65,2.89-1.51,3.2-2.47h-2.33v-3.13h2.51v-.89h-1.71v-.64c-.35,.23-.71,.44-1.07,.62-.1-.26-.34-.67-.53-.91,1.34-.61,2.64-1.77,3.27-2.81h1.01c.85,1.14,2.16,2.16,3.41,2.65-.2,.26-.43,.67-.58,.98-.31-.16-.64-.35-.96-.55v.65h-1.83v.89h2.64v3.13h-2.29Zm-1.37-.89c.01-.16,.01-.3,.01-.46v-.9h-1.52v1.35h1.51Zm2.42-4.08c-.74-.55-1.44-1.2-1.91-1.82-.41,.6-1.06,1.26-1.79,1.82h3.69Zm-1.4,2.72v.92c0,.14,0,.29-.01,.43h1.63v-1.35h-1.62Z"/><path class="cls-5" d="M38.67,182.32h4.53v.97h-10.11v-.97h4.4v-2.72h-3.83v-.96h3.83v-1.43h-2.35v-.62c-.6,.43-1.22,.83-1.87,1.18-.13-.25-.46-.67-.7-.9,2.04-1.01,3.99-2.77,4.89-4.25h1.14c1.27,1.75,3.27,3.3,5.13,4.1-.26,.29-.53,.67-.72,1-.63-.32-1.28-.73-1.92-1.19v.68h-2.44v1.43h3.91v.96h-3.91v2.72Zm-3.21-2.54c.47,.64,.95,1.49,1.12,2.06l-.97,.43c-.14-.58-.6-1.48-1.05-2.13l.91-.36Zm5.24-3.55c-1.04-.79-1.98-1.68-2.6-2.52-.58,.82-1.45,1.7-2.48,2.52h5.08Zm-1.24,5.67c.41-.56,.92-1.48,1.21-2.13l1.07,.4c-.47,.76-1.01,1.57-1.45,2.11l-.83-.37Z"/><path class="cls-5" d="M49.1,175.5h-4.47v-.89h4.47v.89Zm-.4,7.48h-2.58v.5h-.96v-4.03h3.54v3.53Zm-.01-5.88h-3.51v-.86h3.51v.86Zm-3.51,.73h3.51v.88h-3.51v-.88Zm3.49-3.93h-3.44v-.88h3.44v.88Zm-2.54,6.45v1.73h1.62v-1.73h-1.62Zm9.49-4.14v.82h-6.54v-.82h2.72v-.66h-2.12v-.78h2.12v-.6h-2.43v-.82h2.43v-.73h1.06v.73h2.52v.82h-2.52v.6h2.33v.78h-2.33v.66h2.76Zm-.68,6.31c0,.5-.11,.77-.44,.92-.36,.14-.89,.14-1.64,.14-.04-.26-.16-.65-.29-.9,.49,.02,.98,.01,1.13,.01,.16-.01,.2-.05,.2-.19v-1.1h-2.91v2.21h-1.03v-5.98h4.99v4.89Zm-3.96-4.08v.72h2.91v-.72h-2.91Zm2.91,2.19v-.72h-2.91v.72h2.91Z"/><path class="cls-5" d="M60.94,180.31c-1.24,.78-2.62,1.6-3.66,2.19l-.7-1.01c1.02-.5,2.55-1.37,3.99-2.19l.36,1.01Zm6-3.62c-.74,.84-1.69,1.77-2.46,2.43,.89,1.16,1.98,2.11,3.25,2.67-.25,.24-.62,.67-.8,1-1.83-.92-3.24-2.6-4.25-4.64v4.05c0,.71-.17,1.04-.6,1.24-.43,.18-1.17,.22-2.22,.22-.06-.32-.24-.84-.39-1.18,.77,.02,1.54,.02,1.77,.01,.22,0,.3-.07,.3-.29v-6.58h-4.59v-1.08h4.59v-1.88h1.14v1.88h2.94c-.5-.38-1.32-.86-1.97-1.2l.67-.71c.72,.35,1.7,.9,2.21,1.3l-.55,.61h1.4v1.08h-4.7v.13c.31,.89,.72,1.75,1.22,2.54,.72-.67,1.55-1.57,2.05-2.3l.98,.7Zm-7.57,2.29c-.35-.62-1.15-1.55-1.86-2.19l.84-.59c.71,.61,1.56,1.5,1.92,2.11l-.9,.67Z"/><path class="cls-5" d="M79.46,178.62v.8h-10.62v-.8h4.7v-.58h-3.87v-.72h3.87v-.55h-3.59v-.71h3.59v-.59h-4.69v-.8h4.69v-.58h-3.44v-.68h3.44v-.82h1.13v.82h3.37v1.26h1.41v.8h-1.41v1.3h-3.37v.55h3.96v.72h-3.96v.58h4.8Zm-9.11,1.3h7.75v3.74h-1.13v-.35h-5.53v.36h-1.09v-3.75Zm1.09,.72v.6h5.53v-.6h-5.53Zm5.53,1.93v-.64h-5.53v.64h5.53Zm-2.3-7.89h2.27v-.58h-2.27v.58Zm0,1.39h2.27v-.59h-2.27v.59Z"/><path class="cls-5" d="M86.61,183.16l-.71-1.13c.41-.04,.77-.1,1.07-.17,1.54-.35,2.9-1.48,2.9-3.41,0-1.74-1.06-3.12-2.9-3.35-.17,1.08-.37,2.24-.72,3.37-.72,2.45-1.71,3.8-2.9,3.8s-2.28-1.32-2.28-3.32c0-2.69,2.35-4.99,5.36-4.99s4.7,2.02,4.7,4.52-1.61,4.25-4.52,4.67Zm-3.23-2.3c.54,0,1.1-.78,1.65-2.63,.3-.95,.52-2.04,.66-3.09-2.16,.35-3.42,2.22-3.42,3.71,0,1.38,.59,2.01,1.1,2.01Z"/><path class="cls-5" d="M95.12,180.52c0,.85,.84,1.44,2.69,1.44,1.63,0,3.17-.18,4.14-.47v1.32c-.92,.24-2.41,.42-4.1,.42-2.58,0-3.97-.86-3.97-2.43,0-.65,.13-1.22,.24-1.69l1.23,.12c-.13,.46-.23,.86-.23,1.3Zm2.73-6.09c1.16,0,2.45-.07,3.33-.17v1.25c-.83,.07-2.21,.14-3.33,.14-1.22,0-2.26-.05-3.21-.13v-1.24c.88,.1,1.98,.14,3.21,.14Zm4.63,.2l-.79,.35c-.24-.49-.62-1.21-.96-1.67l.78-.32c.3,.43,.73,1.18,.97,1.64Zm1.39-.52l-.78,.35c-.26-.52-.65-1.21-.98-1.66l.77-.32c.31,.44,.77,1.2,1,1.63Z"/><path class="cls-5" d="M107.29,181.08c.54,.84,1.54,1.21,2.89,1.26,1.34,.05,4.03,.01,5.53-.08-.13,.26-.31,.79-.37,1.14-1.37,.06-3.8,.08-5.17,.02-1.54-.06-2.6-.44-3.37-1.38-.52,.49-1.07,.97-1.67,1.49l-.58-1.14c.52-.34,1.12-.78,1.64-1.24v-2.83h-1.43v-1.03h2.52v3.79Zm-.56-5.56c-.36-.58-1.18-1.4-1.89-1.94l.83-.66c.72,.53,1.57,1.3,1.96,1.87l-.89,.73Zm3.08,1.12c-.06,1.6-.35,3.57-1.4,4.95-.19-.19-.66-.49-.91-.61,1.14-1.46,1.24-3.53,1.24-5.05v-2.75h6.48v1.03h-5.39v1.43h4.14l.2-.04,.71,.24c-.35,1.56-.98,2.81-1.82,3.79,.72,.6,1.6,1.06,2.62,1.33-.25,.23-.56,.67-.72,.96-1.05-.34-1.94-.84-2.69-1.51-.71,.62-1.52,1.09-2.41,1.44-.13-.26-.42-.71-.64-.94,.84-.28,1.62-.72,2.29-1.3-.68-.83-1.2-1.83-1.58-2.99h-.11Zm1.19,0c.3,.83,.72,1.58,1.26,2.22,.54-.64,.97-1.38,1.27-2.22h-2.53Z"/><path class="cls-5" d="M119.4,181.08c.53,.83,1.51,1.21,2.83,1.26,1.33,.05,3.99,.01,5.49-.08-.13,.26-.31,.79-.37,1.14-1.36,.06-3.77,.08-5.13,.02-1.52-.06-2.55-.46-3.31-1.38-.56,.49-1.14,.97-1.76,1.49l-.58-1.15c.54-.34,1.17-.78,1.74-1.24v-2.82h-1.54v-1.03h2.63v3.79Zm-.55-5.6c-.38-.56-1.25-1.37-2-1.9l.83-.67c.76,.52,1.64,1.26,2.05,1.83l-.88,.73Zm5.66,2.77c.5,1.33,1.51,2.28,3.03,2.67-.25,.22-.56,.66-.72,.94-1.45-.49-2.42-1.43-3.02-2.77-.43,.98-1.31,1.97-3.03,2.73-.13-.23-.48-.61-.73-.8,1.97-.77,2.66-1.81,2.89-2.77h-2.94v-1h3.06v-1.43h-2.66v-1.01h1.37c-.17-.52-.56-1.22-.97-1.76l.95-.4c.46,.56,.91,1.34,1.07,1.87l-.66,.29h2.96l-.68-.24c.37-.53,.83-1.35,1.05-1.95l1.14,.36c-.39,.66-.84,1.36-1.21,1.83h1.74v1.01h-2.96v1.43h3.33v1h-3Z"/></g><rect class="cls-4" x=".75" y="242.34" width="217.95" height="15.47"/></g></svg>