<svg xmlns="http://www.w3.org/2000/svg" width="107.478" height="103" viewBox="0 0 107.478 103"><g transform="translate(1.5 1.5)"><path d="M39.351,71.587A96.213,96.213,0,0,1,4.739,68.844h0A4.363,4.363,0,0,1,1.5,64.622V59.4" transform="translate(-1.5 -9.917)" fill="none" stroke="#344154" stroke-linecap="round" stroke-linejoin="round" stroke-width="3"/><path d="M46.181,51.878A96.1,96.1,0,0,1,4.749,50.084h0A4.363,4.363,0,0,1,1.51,45.862V40.64" transform="translate(-1.501 -7.19)" fill="none" stroke="#344154" stroke-linecap="round" stroke-linejoin="round" stroke-width="3"/><path d="M57.548,21.89v5.222a4.373,4.373,0,0,1-3.239,4.222h0a96.1,96.1,0,0,1-49.56,0h0A4.363,4.363,0,0,1,1.51,27.112V21.89" transform="translate(-1.501 -4.464)" fill="none" stroke="#344154" stroke-linecap="round" stroke-linejoin="round" stroke-width="3"/><ellipse cx="28.023" cy="7.939" rx="28.023" ry="7.939" fill="none" stroke="#344154" stroke-linecap="round" stroke-linejoin="round" stroke-width="3"/><path d="M72.97,90.827l11.683,10.418L101.506,80.64" transform="translate(-11.89 -13.005)" fill="none" stroke="#344154" stroke-linecap="round" stroke-linejoin="round" stroke-width="3"/><rect width="61.49" height="43.458" transform="translate(42.988 56.542)" fill="none" stroke="#344154" stroke-linecap="round" stroke-linejoin="round" stroke-width="3"/><path d="M107.629,56.04A23.934,23.934,0,0,0,83.7,32.11h0A23.928,23.928,0,0,0,59.77,56.04" transform="translate(-9.971 -5.95)" fill="none" stroke="#344154" stroke-linecap="round" stroke-linejoin="round" stroke-width="3"/><path d="M105.23,57.14A17.48,17.48,0,0,0,87.77,39.68" transform="translate(-14.041 -7.05)" fill="none" stroke="#344154" stroke-linecap="round" stroke-linejoin="round" stroke-width="3"/><path d="M114.408,92.35h0a36.035,36.035,0,0,1-18.272,16.674l-1.376.564h19.648V92.35Z" transform="translate(-15.057 -14.707)" fill="#ff6d3b"/></g></svg>